# xmcd
#
# Track frame offsets:
#	150
#	12224
#	26426
#	39258
#	50837
#	60431
#	72652
#	85953
#	97737
#	111433
#	121114
#	131750
#
# Disc length: 1911 seconds
#
# Revision: 0
# Processed by: cddbd v1.5.2PL0 Copyright (c) Steve Scherf et al.
# Submitted via: EasyCDDAExtractor 16.0.6.1
#
DISCID=9b07750c
DTITLE=Συλλογικός δίσκος - Ανθολογία-Γ. Σπανός Α
DYEAR=2010
DGENRE=Έντεχνη λαϊκή
TTITLE0=Χωματά Καίτη - Το Χριστινάκι [ποίηση Βασίλης Ρώτας]
TTITLE1=Βιολάρης Μιχάλης - Τρεις νέοι [ποίηση Αιμιλία Δάφνη]
TTITLE2=Αστεριάδη Πόπη - Η βροχή [ποίηση Τάκης Χατζηπαναγιώτου]
TTITLE3=Βιολάρης Μιχάλης - Ήρθες εψές [ποίηση Σωτήρης Σκίπης]
TTITLE4=Ζωγράφος Γιώργος - Τ' όνειρό μου πέθανε [ποίηση Ναπολέων Λαπαθιώτης]
TTITLE5=Χωματά Καίτη - Λυπημένα δειλινά [ποίηση Ζαχαρίας Παπαντωνίου]
TTITLE6=Πουλόπουλος Γιάννης - Παιδί μου, ώρα σου καλή [ποίηση Γεώργιος Βιζυηνό
TTITLE6=ς]
TTITLE7=Χωματά Καίτη - Χρόνια στο γιαλό [ποίηση Γεώργιος Τσουκαλάς]
TTITLE8=Αστεριάδη Πόπη - Έρωτας τάχα [ποίηση Μυρτιώτισσα]
TTITLE9=Χωματά Καίτη-Βιολάρης Μιχάλης-χορωδία - Άσπρα καράβια [ποίηση Σωτήρης 
TTITLE9=Σκίπης]
TTITLE10=Χωματά Καίτη - Θλίψη [ποίηση Κωνσταντίνος Χατζόπουλος]
TTITLE11=Ζωγράφος Γιώργος - Μιά πίκρα [ποίηση Κωστής Παλαμάς]
EXTD=
EXTT0=
EXTT1=
EXTT2=
EXTT3=
EXTT4=
EXTT5=
EXTT6=
EXTT7=
EXTT8=
EXTT9=
EXTT10=
EXTT11=
PLAYORDER=
